<svg width="332" height="316" viewBox="0 0 632 316" fill="none" xmlns="http://www.w3.org/2000/svg">
<path d="M315.805 631.609C490.219 631.609 631.609 490.219 631.609 315.805C631.609 141.391 490.219 0 315.805 0C141.391 0 0 141.391 0 315.805C0 490.219 141.391 631.609 315.805 631.609Z" fill="#237CF2"/>
<path d="M317.817 575.287C460.014 575.287 575.288 460.013 575.288 317.816C575.288 175.619 460.014 60.3447 317.817 60.3447C175.619 60.3447 60.3457 175.619 60.3457 317.816C60.3457 460.013 175.619 575.287 317.817 575.287Z" fill="#3289FC"/>
<path d="M315.805 502.873C419.121 502.873 502.874 419.12 502.874 315.804C502.874 212.489 419.121 128.735 315.805 128.735C212.49 128.735 128.736 212.489 128.736 315.804C128.736 419.12 212.49 502.873 315.805 502.873Z" fill="#4696FF"/>
</svg>
