<svg width="88" height="67" viewBox="0 0 88 67" fill="none" xmlns="http://www.w3.org/2000/svg">
<path d="M40.1156 39.9094H19.2844C8.62812 39.9094 0 48.5376 0 59.1938C0 63.4907 3.47188 66.9625 7.76875 66.9625H51.6312C55.9281 66.9625 59.4 63.4907 59.4 59.1938C59.4 48.5376 50.7719 39.9094 40.1156 39.9094Z" fill="#1A73E8"/>
<path d="M29.7 34.4094C39.2019 34.4094 46.9047 26.7066 46.9047 17.2047C46.9047 7.7028 39.2019 0 29.7 0C20.1981 0 12.4953 7.7028 12.4953 17.2047C12.4953 26.7066 20.1981 34.4094 29.7 34.4094Z" fill="#1A73E8"/>
<path d="M82.5688 19.5765H75.5219V12.5296C75.5219 9.52183 73.0985 7.09839 70.0906 7.09839C67.0828 7.09839 64.6594 9.52183 64.6594 12.5296V19.5765H57.6125C54.6219 19.5765 52.1813 22 52.1813 25.0078C52.1813 27.9984 54.6047 30.439 57.6125 30.439H64.6594V37.4859C64.6594 40.4765 67.0828 42.9171 70.0906 42.9171C73.0813 42.9171 75.5219 40.4937 75.5219 37.4859V30.439H82.5688C85.5766 30.439 88 28.0156 88 25.0078C88 22.0171 85.5766 19.5765 82.5688 19.5765Z" fill="#1A73E8"/>
</svg>
