<svg width="65" height="68" viewBox="0 0 65 68" fill="none" xmlns="http://www.w3.org/2000/svg">
<path d="M24.6552 44.1594V38.8025C24.6552 36.5724 22.8397 34.7568 20.6095 34.7568H4.04569C1.81552 34.7568 0 36.5724 0 38.8025V44.1594C0 46.3896 1.81552 48.2051 4.04569 48.2051H20.6095C22.8397 48.2051 24.6552 46.3896 24.6552 44.1594ZM15.6897 44.843C13.8405 44.843 12.3276 43.3301 12.3276 41.481C12.3276 39.6318 13.8405 38.1189 15.6897 38.1189C17.5388 38.1189 19.0517 39.6318 19.0517 41.481C19.0517 43.3301 17.5388 44.843 15.6897 44.843Z" fill="#1A73E8"/>
<path d="M6.72412 20.8377V32.5153H22.1112C24.7448 32.5153 26.8965 34.936 26.8965 37.9058V45.0446C26.8965 48.0144 24.756 50.4351 22.1112 50.4351H6.72412V62.1127C6.72412 64.9481 9.02153 67.2455 11.8569 67.2455H59.8672C62.7026 67.2455 65 64.9481 65 62.1127V20.8377C65 18.0024 62.7026 15.705 59.8672 15.705H11.8569C9.02153 15.705 6.72412 18.0024 6.72412 20.8377Z" fill="#1A73E8"/>
<path d="M32.2198 11.5808L31.2672 8.38684C30.5836 8.6446 30.1465 9.04805 29.9784 9.37305C29.9112 9.49632 29.844 9.68684 29.8888 9.85494L30.2586 11.1101C30.3819 11.536 31.256 11.8162 32.2198 11.592V11.5808Z" fill="#1A73E8"/>
<path d="M35.0216 13.1052L35.1337 13.4638H36.9268C36.6914 13.1052 35.8957 12.9034 35.0216 13.1052Z" fill="#1A73E8"/>
<path d="M39.4706 1.48351C36.5793 -0.0854523 33.2396 -0.421659 30.0793 0.530927C26.9301 1.48351 24.3301 3.60162 22.7612 6.493C21.5956 8.65593 21.1137 11.0654 21.3379 13.4637H29.631C28.9025 13.0939 28.3422 12.5223 28.1068 11.749L27.737 10.4939C27.5241 9.79903 27.6137 9.01455 27.9948 8.30851C28.4991 7.36713 29.4517 6.63869 30.6172 6.23524L29.9672 4.07231L32.1189 3.43351L32.7577 5.57403L35.9741 4.59903L36.6129 6.75075L33.3965 7.72575L34.3715 10.9533C36.5456 10.393 38.6077 11.2223 39.1232 12.9258L39.2801 13.4525H45.881C46.0267 11.8947 45.881 10.3033 45.4215 8.79041C44.4689 5.64127 42.3508 3.04127 39.4594 1.47231L39.4706 1.48351Z" fill="#1A73E8"/>
<path d="M61.7837 13.4638C62.1199 13.4638 62.4337 13.5087 62.7587 13.5647V11.3121C62.7587 8.90264 61.0553 6.95264 58.9484 6.95264H46.8337C47.1139 7.55781 47.3717 8.1854 47.5734 8.8354C48.0329 10.3483 48.2234 11.9061 48.1674 13.4638H61.7949H61.7837Z" fill="#1A73E8"/>
<path d="M20.4078 6.94102H12.4733C10.3776 6.94102 8.96558 8.5436 8.96558 10.9531V13.5531C9.27937 13.4971 9.60437 13.4522 9.94058 13.4522H19.0742C18.9957 11.2221 19.444 9.00309 20.4078 6.92981V6.94102Z" fill="#1A73E8"/>
</svg>
